# Blender v2.83.3 OBJ File: 'Main33.blend'
# www.blender.org
o Sword_Cube.146
v -0.074646 0.170017 -0.004996
v 0.075021 0.170017 -0.004997
v -0.074646 0.189983 -0.004996
v 0.075021 0.189983 -0.004997
v -0.074646 0.170017 0.005003
v 0.075021 0.170017 0.005003
v -0.074646 0.189983 0.005003
v 0.075021 0.189983 0.005003
v 0.015104 0.929983 0.005003
v -0.014729 0.929983 0.005003
v 0.030021 0.190017 0.005003
v -0.029646 0.190017 0.005003
v 0.015104 0.929983 -0.004997
v -0.014729 0.929983 -0.004996
v 0.030021 0.190017 -0.004997
v -0.029646 0.190017 -0.004996
v 0.005459 0.969983 0.005003
v -0.005084 0.969983 0.005003
v 0.005459 0.969983 -0.004997
v -0.005084 0.969983 -0.004996
v -0.010498 0.040017 -0.004996
v 0.010875 0.040017 -0.004997
v -0.015006 0.169983 -0.004996
v 0.015383 0.169983 -0.004997
v -0.010498 0.040017 0.005003
v 0.010875 0.040017 0.005003
v -0.015006 0.169983 0.005003
v 0.015383 0.169983 0.005003
v -0.010498 0.000017 -0.004996
v 0.010875 0.000017 -0.004997
v -0.010498 0.000017 0.005003
v 0.010875 0.000017 0.005003
v -0.019100 0.009137 0.005003
v -0.019100 0.030898 0.005003
v 0.019476 0.030898 0.005003
v 0.019476 0.009137 0.005003
v 0.019476 0.009137 -0.004997
v 0.019476 0.030898 -0.004997
v -0.019100 0.030898 -0.004996
v -0.019100 0.009137 -0.004996
vt 0.528967 0.031168
vt 0.528967 0.045034
vt 0.528967 0.045034
vt 0.528967 0.031168
vt 0.632902 0.031168
vt 0.632902 0.045034
vt 0.632902 0.045034
vt 0.632902 0.031168
vt 0.560224 0.031144
vt 0.601652 0.031144
vt 0.601652 0.031144
vt 0.560224 0.031144
vt 0.509469 0.958962
vt 0.504973 0.735843
vt 0.504973 0.735843
vt 0.509469 0.958962
vt 0.495976 0.735843
vt 0.491481 0.958962
vt 0.491481 0.958962
vt 0.495976 0.735843
vt 0.498884 0.723781
vt 0.502065 0.723781
vt 0.498884 0.723781
vt 0.502065 0.723781
vt 0.104905 0.273063
vt 0.112527 0.492970
vt 0.112527 0.492970
vt 0.104905 0.273063
vt 0.156325 0.273063
vt 0.148703 0.492970
vt 0.148703 0.492970
vt 0.156325 0.273063
vt 0.573515 0.135309
vt 0.573515 0.135309
vt 0.567541 0.141643
vt 0.567541 0.141643
vt 0.591490 0.045058
vt 0.570387 0.045058
vt 0.570387 0.045058
vt 0.591490 0.045058
vt 0.573515 0.163088
vt 0.588362 0.163088
vt 0.588362 0.163088
vt 0.573515 0.163088
vt 0.588362 0.135309
vt 0.594328 0.141643
vt 0.588362 0.135309
vt 0.594328 0.141643
vt 0.567541 0.156753
vt 0.594328 0.156753
vt 0.594328 0.156753
vt 0.567541 0.156753
vn -1.0000 0.0000 0.0000
vn -0.0000 0.0000 -1.0000
vn 0.0000 0.0000 1.0000
vn -0.0000 -1.0000 0.0000
vn 1.0000 -0.0000 -0.0000
vn 0.0000 1.0000 -0.0000
vn 0.9998 0.0202 -0.0000
vn -0.9998 0.0202 0.0000
vn -0.9721 0.2344 -0.0000
vn 0.9721 0.2344 -0.0000
vn -0.9994 -0.0347 0.0000
vn -0.7275 0.6862 -0.0000
vn 0.9994 -0.0347 -0.0000
vn 0.7275 -0.6861 -0.0000
vn 0.7275 0.6861 -0.0000
vn -0.7275 -0.6861 -0.0000
s off
f 3/1/1 1/2/1 5/3/1 7/4/1
f 1/2/2 3/1/2 4/5/2 2/6/2
f 6/7/3 8/8/3 7/4/3 5/3/3
f 1/2/4 2/6/4 6/7/4 5/3/4
f 2/6/5 4/5/5 8/8/5 6/7/5
f 4/5/6 3/1/6 7/4/6 8/8/6
f 16/9/4 15/10/4 11/11/4 12/12/4
f 15/13/7 13/14/7 9/15/7 11/16/7
f 14/17/8 16/18/8 12/19/8 10/20/8
f 13/14/2 14/17/2 20/21/2 19/22/2
f 11/16/3 9/15/3 10/20/3 12/19/3
f 16/18/2 14/17/2 13/14/2 15/13/2
f 19/22/6 20/21/6 18/23/6 17/24/6
f 14/17/9 10/20/9 18/23/9 20/21/9
f 9/15/10 13/14/10 19/22/10 17/24/10
f 10/20/3 9/15/3 17/24/3 18/23/3
f 23/25/11 21/26/11 25/27/11 27/28/11
f 21/26/2 23/25/2 24/29/2 22/30/2
f 26/31/3 28/32/3 27/28/3 25/27/3
f 25/33/12 21/34/12 39/35/12 34/36/12
f 22/30/13 24/29/13 28/32/13 26/31/13
f 24/37/6 23/38/6 27/39/6 28/40/6
f 29/41/4 30/42/4 32/43/4 31/44/4
f 21/34/2 22/45/2 38/46/2 39/35/2
f 26/47/3 25/33/3 34/36/3 35/48/3
f 40/49/2 37/50/2 30/42/2 29/41/2
f 37/50/14 36/51/14 32/43/14 30/42/14
f 22/45/15 26/47/15 35/48/15 38/46/15
f 36/51/3 33/52/3 31/44/3 32/43/3
f 36/51/5 37/50/5 38/46/5 35/48/5
f 40/49/1 33/52/1 34/36/1 39/35/1
f 37/50/2 40/49/2 39/35/2 38/46/2
f 33/52/3 36/51/3 35/48/3 34/36/3
f 33/52/16 40/49/16 29/41/16 31/44/16
