# Blender v2.92.0 OBJ File: 'LowPolyTreePack.blend'
# www.blender.org
mtllib small evergreen.mtl
o Tree_Type2_02_Model_Circle.016
v -7.743747 0.614595 -7.556759
v -7.518488 0.742293 -7.825212
v -7.518488 0.614595 -8.175653
v -7.743747 0.842720 -8.444105
v -8.088862 0.842720 -8.504958
v -8.392353 0.614595 -8.329738
v -8.512210 0.800281 -8.000432
v -8.392353 0.454714 -7.671126
v -8.088863 0.454714 -7.495906
v -8.041228 1.731080 -8.233819
v -8.368377 0.664968 -8.442974
v -8.198916 0.792347 -8.540812
v -8.181879 1.731080 -8.152615
v -7.969000 0.842720 -8.727937
v -7.776298 0.842720 -8.693958
v -7.624313 0.792347 -8.468548
v -7.498536 0.664968 -8.318652
v -7.881287 1.731080 -8.205617
v -7.275637 0.642792 -8.108026
v -7.275637 0.714096 -7.912351
v -7.776893 1.731080 -8.081204
v -7.776893 1.731080 -7.918796
v -7.480568 0.714096 -7.710938
v -7.606346 0.642792 -7.561043
v -7.789785 0.579291 -7.361953
v -7.982488 0.490018 -7.327974
v -7.881287 1.731080 -7.794384
v -8.206214 0.454714 -7.449627
v -8.375673 0.454714 -7.547465
v -8.041228 1.731080 -7.766181
v -8.181879 1.731080 -7.847386
v -8.572041 0.531020 -7.686440
v -8.638966 0.723974 -7.870314
v -8.237426 1.731080 -8.000000
v -8.690268 0.759278 -8.147641
v -8.623343 0.655597 -8.331515
v -8.111621 2.517959 -8.002661
v -8.036043 2.517959 -7.898637
v -7.913756 2.517959 -7.938371
v -7.913756 2.517959 -8.066952
v -8.036043 2.517959 -8.106685
v -8.447845 1.441397 -8.013784
v -8.108255 1.441397 -7.546380
v -7.610893 1.726438 -7.696630
v -7.615775 1.472743 -8.290027
v -8.151928 1.619507 -8.467334
v -7.860275 2.502590 -8.062599
v -7.860275 2.502590 -7.945717
v -7.513527 1.563069 -8.147661
v -7.510801 1.704724 -7.845678
v -7.880820 2.517959 -7.853038
v -8.003108 2.517959 -7.813305
v -7.647203 1.663497 -7.472981
v -7.924915 1.504338 -7.389087
v -8.074966 2.517959 -7.867199
v -8.150545 2.517959 -7.971223
v -8.270123 1.441397 -7.579416
v -8.459740 1.441397 -7.840401
v -8.192462 2.517959 -8.065537
v -8.116884 2.517959 -8.169561
v -8.562948 1.480726 -8.254282
v -8.397717 1.580178 -8.507530
v -8.000000 3.019909 -8.000000
v -8.016582 2.517959 -8.175550
v -7.894294 2.517959 -8.135816
v -7.990097 1.587100 -8.581895
v -7.690725 1.505151 -8.482892
v -7.949512 0.866636 -7.913156
v -7.905201 0.891756 -7.965964
v -7.905201 0.866636 -8.034900
v -7.949512 0.911511 -8.087708
v -8.017401 0.911511 -8.099679
v -8.077102 0.866636 -8.065210
v -8.100679 0.903163 -8.000432
v -8.077102 0.835186 -7.935653
v -8.017401 0.835186 -7.901186
v -8.135237 -0.005712 -7.984116
v -8.067618 -0.005712 -7.866997
v -7.932382 -0.005712 -7.866997
v -7.864764 -0.005712 -7.984115
v -7.932382 -0.005712 -8.101233
v -8.067618 -0.005712 -8.101233
v -8.135237 2.133592 -7.984116
v -8.067618 2.133592 -7.866997
v -7.932382 2.133592 -7.866997
v -7.864764 2.133592 -7.984115
v -7.932382 2.133592 -8.101233
v -8.067618 2.133592 -8.101233
v -8.135237 0.574854 -7.950151
v -8.067618 0.557561 -8.065986
v -7.932382 0.557561 -8.065986
v -7.864764 0.574854 -7.950151
v -7.932382 0.592148 -7.834317
v -8.067618 0.592148 -7.834317
v -8.188292 1.497091 -8.007616
v -8.039938 1.497091 -7.803425
v -7.822659 1.621615 -7.869063
v -7.824791 1.510785 -8.128296
v -8.059017 1.574901 -8.205755
vt 0.891842 0.373791
vt 0.891842 0.373791
vt 0.891842 0.373791
vt 0.891842 0.373791
vt 0.891842 0.373791
vt 0.891842 0.373791
vt 0.891842 0.373791
vt 0.891842 0.373791
vt 0.891842 0.373791
vt 0.891842 0.373791
vt 0.891842 0.373791
vt 0.891842 0.373791
vt 0.891842 0.373791
vt 0.891842 0.373791
vt 0.891842 0.373791
vt 0.891842 0.373791
vt 0.891842 0.373791
vt 0.891842 0.373791
vt 0.891842 0.373791
vt 0.891842 0.373791
vt 0.891842 0.373791
vt 0.891842 0.373791
vt 0.891842 0.373791
vt 0.891842 0.373791
vt 0.891842 0.373791
vt 0.891842 0.373791
vt 0.891842 0.373791
vt 0.891842 0.373791
vt 0.891842 0.373791
vt 0.891842 0.373791
vt 0.891842 0.373791
vt 0.891842 0.373791
vt 0.891842 0.373791
vt 0.891842 0.373791
vt 0.891842 0.373791
vt 0.891842 0.373791
vt 0.891842 0.373791
vt 0.891842 0.373791
vt 0.891842 0.373791
vt 0.891842 0.373791
vt 0.891842 0.373791
vt 0.891842 0.373791
vt 0.891842 0.373791
vt 0.891842 0.373791
vt 0.891842 0.373791
vt 0.891842 0.373791
vt 0.891842 0.373791
vt 0.891842 0.373791
vt 0.891842 0.373791
vt 0.891842 0.373791
vt 0.891842 0.373791
vt 0.891842 0.373791
vt 0.891842 0.373791
vt 0.891842 0.373791
vt 0.891842 0.373791
vt 0.891842 0.373791
vt 0.891842 0.373791
vt 0.891842 0.373791
vt 0.891842 0.373791
vt 0.891842 0.373791
vt 0.891842 0.373791
vt 0.891842 0.373791
vt 0.891842 0.373791
vt 0.891842 0.373791
vt 0.891842 0.373791
vt 0.891842 0.373791
vt 0.891842 0.373791
vt 0.891842 0.373791
vt 0.891842 0.373791
vt 0.891842 0.373791
vt 0.891842 0.373791
vt 0.891842 0.373791
vt 0.891842 0.373791
vt 0.891842 0.373791
vt 0.891842 0.373791
vt 0.891842 0.373791
vt 0.345812 0.853625
vt 0.396375 0.853625
vt 0.396375 0.904188
vt 0.345812 0.904188
vt 0.345812 0.853625
vt 0.396375 0.853625
vt 0.396375 0.904188
vt 0.345812 0.904188
vt 0.345812 0.853625
vt 0.396375 0.853625
vt 0.396375 0.904188
vt 0.345812 0.904188
vt 0.345812 0.853625
vt 0.396375 0.853625
vt 0.396375 0.904188
vt 0.345812 0.904188
vt 0.345812 0.853625
vt 0.396375 0.853625
vt 0.396375 0.904188
vt 0.345812 0.904188
vt 0.345812 0.853625
vt 0.396375 0.853625
vt 0.396375 0.904188
vt 0.345812 0.904188
vt 0.371094 0.904188
vt 0.392988 0.891547
vt 0.392988 0.866265
vt 0.371094 0.853625
vt 0.349199 0.866265
vt 0.349199 0.891547
vt 0.345812 0.853625
vt 0.396375 0.853625
vt 0.396375 0.904188
vt 0.345812 0.904188
vt 0.345812 0.853625
vt 0.396375 0.853625
vt 0.396375 0.904188
vt 0.345812 0.904188
vt 0.345812 0.853625
vt 0.396375 0.853625
vt 0.396375 0.904188
vt 0.345812 0.904188
vt 0.345812 0.853625
vt 0.396375 0.853625
vt 0.396375 0.904188
vt 0.345812 0.904188
vt 0.345812 0.853625
vt 0.396375 0.853625
vt 0.396375 0.904188
vt 0.345812 0.904188
vt 0.345812 0.853625
vt 0.396375 0.853625
vt 0.396375 0.904188
vt 0.345812 0.904188
vt 0.891842 0.373791
vt 0.891842 0.373791
vt 0.891842 0.373791
vt 0.891842 0.373791
vt 0.891842 0.373791
vn 0.0000 -1.0000 0.0000
vn 0.4095 -0.9098 -0.0681
vn -0.1602 -0.8836 0.4399
vn 0.1835 -0.9385 -0.2925
vn 0.4725 -0.8381 -0.2728
vn -0.4240 -0.8340 -0.3530
vn 0.8992 0.4290 -0.0854
vn 0.0138 -0.9395 0.3423
vn -0.4816 0.2691 0.8341
vn -0.2463 -0.7120 -0.6575
vn 0.1800 0.2783 -0.9435
vn 0.3506 0.1786 0.9193
vn -0.0246 0.1407 0.9897
vn -0.8650 0.1883 -0.4650
vn -0.5692 0.3230 -0.7561
vn -0.9725 0.2018 -0.1162
vn 0.1514 0.4899 -0.8586
vn 0.9745 0.1850 -0.1270
vn 0.7923 0.3383 -0.5077
vn 0.9571 0.2041 0.2055
vn -0.0944 0.2445 -0.9651
vn 0.2506 0.1391 -0.9580
vn 0.6821 0.3226 0.6562
vn 0.9406 0.2214 -0.2575
vn -0.0119 0.2068 0.9783
vn 0.0775 0.3452 0.9353
vn -0.8495 0.1394 0.5088
vn 0.9513 0.1717 0.2559
vn -0.9750 0.1789 0.1315
vn 0.3609 0.1803 0.9150
vn -0.7973 0.3507 0.4913
vn -0.7606 0.2248 -0.6091
vn -0.8043 0.4186 -0.4217
vn -0.6512 0.1919 0.7342
vn 0.0343 0.1503 -0.9880
vn -0.9352 0.2674 -0.2320
vn 0.9464 0.2767 -0.1664
vn -0.8067 0.2178 0.5493
vn 0.5717 0.3040 -0.7621
vn 0.9387 0.3357 0.0786
vn 0.6970 0.4122 0.5867
vn 0.9207 0.3678 -0.1304
vn 0.3081 -0.8713 0.3821
vn 0.1169 0.4091 0.9050
vn 0.4497 -0.8762 -0.1736
vn -0.7555 0.2262 0.6148
vn -0.7741 0.2907 0.5624
vn -0.0076 0.2858 0.9583
vn -0.8114 0.3849 -0.4398
vn -0.7545 0.3609 -0.5482
vn 0.2550 0.2952 -0.9208
vn 0.1924 -0.9496 -0.2474
vn 0.3546 0.3741 -0.8569
vn -0.2423 -0.9678 -0.0685
vn -0.6442 0.3223 -0.6936
vn 0.6105 -0.7916 0.0267
vn -0.4384 -0.8445 0.3077
vn 0.2243 -0.7299 -0.6457
vn 0.2047 -0.8189 0.5362
vn -0.5828 -0.7916 -0.1837
vn 0.1626 -0.6505 -0.7419
vn -0.0304 -0.9845 0.1725
vn -0.1380 -0.8445 -0.5175
vn 0.3507 -0.7128 -0.6074
vn -0.8651 0.0108 0.5014
vn 0.0000 0.0212 0.9998
vn 0.8651 0.0108 0.5014
vn 0.8651 -0.0111 -0.5014
vn 0.0000 -0.0224 -0.9998
vn -0.8651 -0.0111 -0.5014
vn -0.8634 0.0305 -0.5035
vn 0.0000 0.0625 -0.9980
vn 0.8634 0.0305 -0.5035
vn 0.8636 -0.0285 0.5034
vn 0.0000 -0.0546 0.9985
vn -0.8636 -0.0285 0.5034
vn -0.9240 0.1383 0.3566
vn -0.9547 0.1259 -0.2698
vn 0.6093 0.1227 -0.7834
vn 0.9654 0.2607 0.0000
vn 0.1235 0.1520 -0.9806
vn 0.1767 0.1498 0.9728
vn 0.2915 0.3319 0.8971
vn 0.9267 0.1153 -0.3577
vn -0.7798 0.2664 0.5666
vn 0.6244 0.1113 0.7731
vn -0.6219 0.1424 -0.7700
vn -0.6086 0.1312 0.7825
vn 0.2941 0.3069 -0.9052
vn 0.9544 0.1280 0.2697
vn 0.2108 -0.9655 -0.1532
vn -0.2384 -0.9678 -0.0804
vn 0.4823 -0.8738 -0.0611
vn 0.2092 -0.9489 -0.2361
vn 0.1348 -0.9115 0.3886
usemtl _trees_normal
s off
f 9/1/1 28/2/1 29/3/1 8/4/1
f 1/5/2 25/6/2 26/7/2 9/1/2
f 7/8/3 35/9/3 36/10/3 6/11/3
f 2/12/4 23/13/4 24/14/4 1/5/4
f 6/11/5 11/15/5 12/16/5 5/17/5
f 5/17/1 14/18/1 15/19/1 4/20/1
f 4/20/6 16/21/6 17/22/6 3/23/6
f 19/24/7 21/25/7 22/26/7 20/27/7
f 3/23/8 19/24/8 20/27/8 2/12/8
f 28/2/9 30/28/9 31/29/9 29/3/9
f 8/4/10 32/30/10 33/31/10 7/8/10
f 5/17/11 12/16/11 10/32/11
f 2/12/12 20/27/12 22/26/12
f 31/29/13 32/30/13 8/4/13
f 10/32/14 14/18/14 5/17/14
f 11/15/15 13/33/15 10/32/15 12/16/15
f 13/33/16 11/15/16 6/11/16
f 14/18/17 10/32/17 18/34/17 15/19/17
f 4/20/18 15/19/18 18/34/18
f 16/21/19 18/34/19 21/25/19 17/22/19
f 3/23/20 17/22/20 21/25/20
f 18/34/21 16/21/21 4/20/21
f 21/25/22 19/24/22 3/23/22
f 23/13/23 22/26/23 27/35/23 24/14/23
f 22/26/24 23/13/24 2/12/24
f 1/5/25 24/14/25 27/35/25
f 25/6/26 27/35/26 30/28/26 26/7/26
f 9/1/27 26/7/27 30/28/27
f 27/35/28 25/6/28 1/5/28
f 8/4/29 29/3/29 31/29/29
f 30/28/30 28/2/30 9/1/30
f 32/30/31 31/29/31 34/36/31 33/31/31
f 7/8/32 33/31/32 34/36/32
f 35/9/33 34/36/33 13/33/33 36/10/33
f 34/36/34 35/9/34 7/8/34
f 6/11/35 36/10/35 13/33/35
f 37/37/36 42/38/36 58/39/36 56/40/36
f 40/41/37 45/42/37 67/43/37 65/44/37
f 42/38/38 37/37/38 59/45/38 61/46/38
f 45/42/39 40/41/39 47/47/39 49/48/39
f 44/49/40 39/50/40 51/51/40 53/52/40
f 39/50/41 44/49/41 50/53/41 48/54/41
f 42/38/1 43/55/1 57/56/1 58/39/1
f 47/47/42 48/54/42 50/53/42 49/48/42
f 44/49/43 45/42/43 49/48/43 50/53/43
f 51/51/44 52/57/44 54/58/44 53/52/44
f 43/55/45 44/49/45 53/52/45 54/58/45
f 38/59/46 43/55/46 54/58/46 52/57/46
f 55/60/47 56/40/47 58/39/47 57/56/47
f 43/55/48 38/59/48 55/60/48 57/56/48
f 59/45/49 60/61/49 62/62/49 61/46/49
f 60/61/50 59/45/50 63/63/50
f 41/64/51 46/65/51 62/62/51 60/61/51
f 46/65/52 42/38/52 61/46/52 62/62/52
f 64/66/53 65/44/53 67/43/53 66/67/53
f 45/42/54 46/65/54 66/67/54 67/43/54
f 46/65/55 41/64/55 64/66/55 66/67/55
f 6/11/56 5/17/56 72/68/56 73/69/56
f 3/23/57 2/12/57 69/70/57 70/71/57
f 1/5/58 9/1/58 76/72/58 68/73/58
f 7/8/59 6/11/59 73/69/59 74/74/59
f 4/20/60 3/23/60 70/71/60 71/75/60
f 8/4/61 7/8/61 74/74/61 75/76/61
f 5/17/62 4/20/62 71/75/62 72/68/62
f 2/12/63 1/5/63 68/73/63 69/70/63
f 9/1/64 8/4/64 75/76/64 76/72/64
f 89/77/65 94/78/65 84/79/65 83/80/65
f 94/81/66 93/82/66 85/83/66 84/84/66
f 93/85/67 92/86/67 86/87/67 85/88/67
f 92/89/68 91/90/68 87/91/68 86/92/68
f 91/93/69 90/94/69 88/95/69 87/96/69
f 90/97/70 89/98/70 83/99/70 88/100/70
f 78/101/1 77/102/1 82/103/1 81/104/1 80/105/1 79/106/1
f 82/107/71 77/108/71 89/109/71 90/110/71
f 81/111/72 82/112/72 90/113/72 91/114/72
f 80/115/73 81/116/73 91/117/73 92/118/73
f 79/119/74 80/120/74 92/121/74 93/122/74
f 78/123/75 79/124/75 93/125/75 94/126/75
f 77/127/76 78/128/76 94/129/76 89/130/76
f 63/63/77 38/59/77 52/57/77
f 41/64/78 63/63/78 64/66/78
f 63/63/79 41/64/79 60/61/79
f 48/54/80 47/47/80 63/63/80
f 40/41/81 63/63/81 47/47/81
f 63/63/82 39/50/82 48/54/82
f 52/57/83 51/51/83 63/63/83
f 39/50/84 63/63/84 51/51/84
f 56/40/85 55/60/85 63/63/85
f 38/59/86 63/63/86 55/60/86
f 63/63/87 37/37/87 56/40/87
f 37/37/88 63/63/88 59/45/88
f 65/44/89 64/66/89 63/63/89
f 63/63/90 40/41/90 65/44/90
f 43/55/91 42/38/91 95/131/91 96/132/91
f 46/65/92 45/42/92 98/133/92 99/134/92
f 44/49/93 43/55/93 96/132/93 97/135/93
f 42/38/94 46/65/94 99/134/94 95/131/94
f 45/42/95 44/49/95 97/135/95 98/133/95
